<?xml version="1.0" encoding="utf-8"?>
<!-- Generator: Adobe Illustrator 24.0.1, SVG Export Plug-In . SVG Version: 6.00 Build 0)  -->
<svg version="1.1" id="Layer_1" xmlns="http://www.w3.org/2000/svg" xmlns:xlink="http://www.w3.org/1999/xlink" x="0px" y="0px"
	 viewBox="0 0 418.9 522.8" style="enable-background:new 0 0 418.9 522.8;" xml:space="preserve">
<style type="text/css">
	.st0{fill:none;stroke:#8FD9F7;stroke-width:1.056;stroke-miterlimit:10;}
	.st1{fill:none;stroke:#8FD9F7;stroke-width:1.056;stroke-miterlimit:10;stroke-dasharray:5.83,5.83;}
	.st2{fill:#04BF10;}
	.st3{fill:#FFFFFF;}
	.st4{fill:#45C2F2;}
	.st5{fill:none;stroke:#45C2F2;stroke-width:2.113;stroke-miterlimit:10;}
	.st6{fill:#8FD9F7;}
	.st7{opacity:0.5;fill:#45C2F2;enable-background:new    ;}
	.st8{fill:none;stroke:#FFFFFF;stroke-width:3.169;stroke-miterlimit:10;}
	.st9{fill:#FFFFFF;stroke:#FFFFFF;stroke-width:1.056;stroke-miterlimit:10;}
	.st10{opacity:0.25;fill:#0000BF;enable-background:new    ;}
	.st11{fill:none;stroke:#FFFFFF;stroke-width:2.113;stroke-miterlimit:10;}
	.st12{fill:none;stroke:#8FD9F7;stroke-width:3.169;stroke-miterlimit:10;}
	.st13{fill:none;stroke:#8FD9F7;stroke-width:1.056;stroke-miterlimit:10;stroke-dasharray:6.13,6.13;}
	.st14{fill:none;stroke:#8FD9F7;stroke-width:1.056;stroke-miterlimit:10;stroke-dasharray:6.09,6.09;}
	.st15{fill:none;stroke:#8FD9F7;stroke-width:1.056;stroke-miterlimit:10;stroke-dasharray:6.12,6.12;}
	.st16{fill:none;stroke:#8FD9F7;stroke-width:1.056;stroke-miterlimit:10;stroke-dasharray:5.8,5.8;}
</style>
<g transform="translate(0 -2850)">
	<g transform="translate(430.994 2977.127)">
		<line class="st0" x1="-219.7" y1="95.7" x2="-216.6" y2="94.7"/>
		<line class="st1" x1="-210.8" y1="92.8" x2="-73.3" y2="48.1"/>
		<line class="st0" x1="-70.3" y1="47.2" x2="-67.3" y2="46.2"/>
		<line class="st0" x1="-219.7" y1="95.7" x2="-217.8" y2="93.1"/>
		<line class="st1" x1="-214.2" y1="88.1" x2="-129.2" y2="-28.9"/>
		<line class="st0" x1="-127.4" y1="-31.3" x2="-125.5" y2="-33.9"/>
		<line class="st0" x1="-219.7" y1="95.7" x2="-219.7" y2="92.5"/>
		<line class="st1" x1="-219.7" y1="86.4" x2="-219.7" y2="-58.3"/>
		<line class="st0" x1="-219.7" y1="-61.3" x2="-219.7" y2="-64.5"/>
		<line class="st0" x1="-219.7" y1="95.7" x2="-221.5" y2="93.1"/>
		<line class="st1" x1="-225.1" y1="88.1" x2="-310.1" y2="-28.9"/>
		<line class="st0" x1="-311.9" y1="-31.3" x2="-313.8" y2="-33.9"/>
		<line class="st0" x1="-219.7" y1="95.7" x2="-222.7" y2="94.7"/>
		<line class="st1" x1="-228.5" y1="92.8" x2="-366.1" y2="48.1"/>
		<line class="st0" x1="-369" y1="47.2" x2="-372" y2="46.2"/>
		<path class="st2" d="M-182.8,113.3c0.2,4.2,3,38.6,3.2,46.3c-2.1-7.2-2.9-16.3-3.6-20.9S-183.7,120.1-182.8,113.3z M-157.6,199.7
			c0.1-1.3-0.6-2.5-1.8-3.1c0.7-0.6,1.2-1.4,1.5-2.3c0.6-1.5,0.6-3.1,0.1-4.6c-0.7-2-1.3-3.9-1.7-6l0.7-0.6v-3.6c1,0,2-0.6,1.9-0.9
			c1-16.5-1.6-34.4-1.8-50.7c-0.1-11.1-1.1-21.9-2.2-32.8c-0.6-5.4-1.3-10.9-1.6-16.1c-0.3-5.1-1.1-10.2-2.5-15.1
			c0.1,0.3-1.5-5.2-1.6-5.5c-0.6-2.4-1.3-4.8-2.2-7.2c-0.6-1.8-0.7-5.1-1.9-6.5c-2.6-3.2-9.2-3.7-12.6-5.5c-4-2-7.6-4.1-11.7-6
			c-3-1.4-7.8-6.2-11-6.3c-1.1-2.2-1.8-3.5-2.8-5.2c-1.5,0-1.9-10.9-1.6-13.1c0.6-0.2,0.9-0.5,1.8-1.5c0.6-0.7,0.9-3,1.2-5.2
			c0.4-3.8,0.8-8.5-1.4-8.3c1.3-4.1,0.7-7-0.3-11.6c-0.4-1.7,0.1-4.6-0.8-6.2s-1.7-2.1-2.6-3.5c-0.3-0.1-1.9-1.5-2.2-1.6
			c-0.7-1.1-1.6-0.9-2.4-1.6c-1.7-0.8-3.5-1.3-5.3-1.6c-2-0.7-4.2-0.8-6.3-0.3c-3-0.7-12.8,3.6-15.6,11.3
			c-1.2,3.4-1.2,16.9,1.5,18.5c-1.6,0.7-0.6,3.3-0.6,5c-1.1,1.7-2.3,3-2.7,5.3c-4.2-0.4-8-0.6-8.4,3.1c-1.7,0.9-3.2,2.3-2.9,4.5
			c-6.8,2.3-4.2,10.7-6.3,15.8c3.8,2.7,8.1,4.9,12.5,6.3c-0.5,1.8-1,4.6-2.4,5.3c-3.5-0.5-11.7-6.1-14.2-8
			c-3.3,2.5-15.2,23.2-16.7,26.4c-2,4.1-4.2,7.7-5.5,12.2c-1.5,5-4,9.5-4.3,14.9c-0.2,3.6,1.2,6.3,3.9,9.1c3,3.1,5.5,2.8,9.5,2
			c3.4-0.7,6.6-2,9.6-3.6c1.2-0.6,2.5-1.7,3.8-2.2c1.6-0.8,3.1-1.6,4.6-2.6c1.1,5,1.4,15.5,1.2,20.1c-0.3,5.3,1.4,10.3,0.6,15.4
			c-1.6,10.1-0.3,21-1.8,31.3c-0.8,5.3-1,10.9-1.5,16.4c-0.5,5,0.3,11.1-1.3,15.7c3.4,1.4,5.7,2.6,9.3,3.1c0.9,5.1,0.8,15.7,1.1,21
			s1,10.7,1,16.2c0,11.5-1.1,22.6-1.6,33.8c-0.6,11.6,1.4,23.6,0.3,35c-0.7,5.6-1.1,11.1-1.3,16.7c0,5.8-1.3,10.8-1.3,16.4
			c0,9.8-0.7,19.6-0.3,29.3c0.6,0,1.2,0,1.8,0.3c-1.7,1.6-6.3,3.8-9.4,5.6s-6.3,4-8,5c-1.7,1-3.9,3-3.9,5c0,0.6,0,1.1,0,1.7
			c-1.3,1.1-0.7,4.3,2.8,4.8c4.6,0.5,9.3,0.5,13.9,0c3-0.4,10.6-3,15.1-6.8c4.1-0.4,8.1-1.3,12-2.6c1.6-0.7,2.8-2.1,3.2-3.8
			c0.2-1.6,0.2-3.2,0.1-4.8l1.1-1.1c0.4-2.4,0.7-4.8,0.8-7.3c0.6-5.6,1.9-10.6,1.9-16.4s0.6-11.2,1-16.8c0.7-11.1,2.4-22.3,3.5-33.4
			s1.5-14.2,3-26.3c0.7-5.5,2-17.4,2-23.1c0-3.4,1.1-14.5,1.2-17.7c0.8,1.1,4.1,11.2,4.5,12.4c0.7,2.1,3,7.8,4.1,10.6
			c0,0,1.8,34.1,2.1,35.9s1.1,2.1,2.5,2.3c1.5,0.1,3,0.1,4.5,0c0.5,4.9,3.9,29.4,3.9,34.2c0,11.6,0.3,22.8-0.3,34.3
			c-0.2,2.7,0.1,5.4,0.8,8c0.5,2,2.1,4.5,2.1,6.3c0.6,0.4,4.1,0.6,4,0.6c0,1.7-1.7,6.3-2,8.9c-0.2,2.1-0.4,4.3-0.4,6.4
			c-0.4,1.4-0.4,2.8-0.1,4.2c0.6,2.9,4.3,5.9,12.6,5.9s12.7-3.3,13.7-5.4s0.6-5.3,0.2-7.4s-2-6.1-2.4-7.9s-2.5-4.4-2.5-6.3
			c4.4-0.8,3.4-13.9,3.4-17.3c0-21.7-2.2-49.6-2.2-69.7c0,0,39.1-10.9,41.5-11.2c2.5-0.3,3.1-1.2,2.9-2.9s-1.5-30.6-1.8-33.5
			s-0.3-6.5-0.5-9.4s-1.9-13.1-2.5-15.6c-0.4-2-2.1-3.5-4.1-3.8c-2.7-0.3-5.3-0.4-8-0.3c-1.5,0.1-16.6,1.9-16.6,1.9l-15.5,1.4v-3.5
			c1.2,0.4,2.4,0,3.2-1c1.1,1,2.8,1,3.9-0.1c0.3-0.3,0.6-0.8,0.7-1.3c1,0.3,2.1-0.2,2.6-1.1c0.9,0.3,1.9,1,1.9,1.9v3.8l3.3-0.3
			L-157.6,199.7z M-235.1,22.8c0.4,2.6,0.5,5.2,0.4,7.8c-1.1,0.2-3.3,4.1-4.4,5.3c-1.5,1.3-3.1,2.3-4.8,3.1c-1.8,1-6.1,2.6-7.8,3.4
			c0.2-1.8,0.5-3.7,1-5.5c2.1-1.3,3.6-3.2,4.4-5.5c0.4-1.6,1-3.1,1.6-4.6c0.6-1.3,2.2-4.3,3-6.8c0,1.7,0.1,3.3,0.3,4.9
			c0.1,0.9,0.9,1.6,1.9,1.6c0,0,0.1,0,0.1,0c0.8,0,1.5-0.6,1.6-1.4c0-0.1,0-0.2,0-0.3c0-1,0.6-7.9,0.6-7.9
			C-236.3,18.7-235.5,20.7-235.1,22.8L-235.1,22.8z M-244.6,16.8c-0.8,0.8-1.4,1.6-1.8,2.6c-0.5,0.8-1.1,2.2-1.7,3.1
			s-1.6,1.6-1.8,1.1c-0.2-1-0.2-2,0-3c1-0.9,1.8-2.1,2.3-3.4C-246.8,16.9-245.8,17-244.6,16.8L-244.6,16.8z"/>
		<path class="st3" d="M-158.8,179.7v3.5l-0.7,0.6c-0.5,0-6.4-0.2-8.3-0.2c-2.5,0-6.6-0.3-9.5-0.6l-0.2-3.5c1-0.1,3.6-0.2,5.1-0.2
			S-160.7,179.6-158.8,179.7z"/>
		<path class="st3" d="M-267.2,35c3,2.2,10.3,7.1,13.5,7.5c1.4-0.6,1.9-3.4,2.4-5.3c-4.5-1.5-8.7-3.6-12.5-6.3
			c-0.5-0.4-0.9-0.9-1.4-0.3C-265.9,32-266.6,33.4-267.2,35z"/>
		<path class="st3" d="M-206,27c-1.1-2.2-1.8-3.5-2.8-5.2c-1.7,1.3-13.3,10.6-17.3,14.4c-1.7-1-7.6-5.1-8.6-5.6
			c-1,1.6-1.6,3.4-1.7,5.3c0.2,2.4,0.6,4.8,1.4,7.1c0,3.2,0.7,14.9,1.2,20.5c1.3-5.8,2.9-11.5,4.8-17.2c-1.5-0.9-2.9-2-4.1-3.3
			c2-2.4,4.4-4.4,7.1-6.1c3,1.8,6.5,3.6,8.6,5.8c-1.4,1.1-4.4,2.9-6.3,4c0.5,4,1.7,13.7,1.8,17.8c1.1-2.2,3.4-10.6,4.7-13.8
			C-215.9,47.5-208,29.9-206,27z"/>
		<circle class="st4" cx="-111.9" cy="-54.7" r="26.5"/>
		<path class="st5" d="M-142.6-48.5c-0.1-1.1-0.2-2.2-0.2-3.3"/>
		<path class="st5" d="M-114.1-23.1c-13.3,0-24.9-9.2-27.9-22.2"/>
		<circle class="st6" cx="-111.9" cy="-54.7" r="17.1"/>
		<circle class="st7" cx="-111.6" cy="-54.9" r="6.4"/>
		<line class="st8" x1="-112" y1="-54.6" x2="-84.6" y2="-82.4"/>
		<path class="st9" d="M-75.7-86.8l-3.9-0.8l-0.9-3.9l-5.5,5.7l0.9,3.9l3.9,0.8L-75.7-86.8z"/>
		<path class="st4" d="M-300,267.4v-70.3h-51.4v57.1c0.1,7.4,6.2,13.3,13.6,13.2L-300,267.4z"/>
		<line class="st8" x1="-342.6" y1="213.3" x2="-308.1" y2="213.3"/>
		<line class="st8" x1="-342.6" y1="219.9" x2="-308.1" y2="219.9"/>
		<line class="st8" x1="-342.7" y1="226.5" x2="-308.2" y2="226.5"/>
		<line class="st8" x1="-342.6" y1="233.1" x2="-308.1" y2="233.1"/>
		<line class="st8" x1="-342.6" y1="239.7" x2="-308.1" y2="239.7"/>
		<line class="st8" x1="-342.6" y1="246.3" x2="-308.1" y2="246.3"/>
		<line class="st8" x1="-321.8" y1="257" x2="-308.2" y2="257"/>
		<line class="st5" x1="-356.7" y1="215.9" x2="-356.7" y2="214.4"/>
		<line class="st5" x1="-356.7" y1="219" x2="-356.7" y2="217.6"/>
		<path class="st5" d="M-329.6,272.7h-9.9c-9.5,0-17.2-7.7-17.2-17.2c0,0,0,0,0,0v-35"/>
		<path class="st4" d="M-372.2,62.7h-39.5c-6,0-10.9-4.9-10.9-10.9l0,0V16.2h60v46.6L-372.2,62.7z"/>
		<rect x="-422.6" y="13.5" class="st10" width="59.8" height="3.4"/>
		<rect x="-398.9" y="62.6" class="st3" width="13.2" height="2.9"/>
		<line class="st8" x1="-392.6" y1="65" x2="-392.6" y2="81.1"/>
		<path class="st8" d="M-407.3,81.1h2.2l12.3-11.8l12.3,11.8h2.5"/>
		<path class="st3" d="M-386.6,13.4V11h-12.9v2.4h-26.8V16h66.4v-2.7H-386.6z"/>
		<line class="st5" x1="-428.4" y1="25.6" x2="-428.4" y2="24.5"/>
		<line class="st5" x1="-428.4" y1="28.1" x2="-428.4" y2="27"/>
		<path class="st5" d="M-407.4,69.7h-4.4c-9.2,0-16.7-7.5-16.7-16.7V29.3"/>
		<line class="st8" x1="-62" y1="37.6" x2="-62" y2="43.6"/>
		<line class="st8" x1="-62" y1="48.3" x2="-62" y2="54.3"/>
		<line class="st8" x1="-53.6" y1="46" x2="-59.6" y2="46"/>
		<line class="st8" x1="-64.3" y1="46" x2="-70.3" y2="46"/>
		<path class="st4" d="M-24.8,65.5V1.6h-46.6v51.9c0.1,6.7,5.6,12.1,12.3,12L-24.8,65.5z"/>
		<path class="st8" d="M-51.9,10.6l-8.3,8.3l-3.8-3.8"/>
		<line class="st8" x1="-47.8" y1="14.8" x2="-32.2" y2="14.8"/>
		<path class="st8" d="M-51.9,22.9l-8.3,8.3l-3.8-3.8"/>
		<line class="st8" x1="-47.8" y1="27" x2="-32.2" y2="27"/>
		<path class="st8" d="M-51.9,35.2l-8.3,8.3l-3.8-3.8"/>
		<line class="st8" x1="-47.8" y1="39.2" x2="-32.2" y2="39.2"/>
		<path class="st8" d="M-51.9,47.5l-8.3,8.3l-3.8-3.8"/>
		<path class="st3" d="M-44.2-0.6v-3.1h-10.3v3.1h-6.3V5h22.8v-5.6H-44.2z"/>
		<line class="st8" x1="-47.8" y1="51.8" x2="-32.2" y2="51.8"/>
		<line class="st5" x1="-76.2" y1="18.7" x2="-76.2" y2="17.3"/>
		<line class="st5" x1="-76.2" y1="21.5" x2="-76.2" y2="20.3"/>
		<path class="st5" d="M-51.5,70.4h-9c-8.6,0-15.6-7-15.6-15.6V22.9"/>
		<circle class="st4" cx="-331.8" cy="-56.6" r="27.4"/>
		<path class="st8" d="M-318.8-48c-5.9,7.5-16.9,8.8-24.4,2.9c-1.1-0.9-2.1-1.9-2.9-3"/>
		<path class="st8" d="M-326.7-61.6c3.8-2.9,9.1-2.9,13-0.1"/>
		<path class="st8" d="M-350.9-61.6c3.8-2.9,9.1-2.9,13-0.1"/>
		<path class="st5" d="M-365.1-52c-0.1-1.3-0.2-2.5-0.2-3.8"/>
		<path class="st5" d="M-331.9-22.5c-15.5,0-29-10.7-32.5-25.8"/>
		<path class="st4" d="M-366.9,149.7l4-4l-2.9-2.9c1.3-1.9,2.2-4.1,2.6-6.3h4.1v-5.6h-4.1c-0.4-2.3-1.3-4.4-2.6-6.3l2.9-2.9l-4-4
			l-2.9,2.9c-1.9-1.3-4.1-2.2-6.3-2.6v-4.1h-5.6v4.1c-2.3,0.4-4.4,1.3-6.3,2.6l-2.9-2.9l-4,4l2.9,2.9c-1.3,1.9-2.2,4.1-2.6,6.3h-4.1
			v5.6h4.1c0.4,2.3,1.3,4.4,2.6,6.3l-2.9,2.9l4,4l2.9-2.9c1.9,1.3,4.1,2.2,6.3,2.6v4.1h5.6v-4.1c2.3-0.4,4.4-1.3,6.3-2.6
			L-366.9,149.7z M-385.9,140.6c-3.8-3.8-3.8-10.1,0-13.9c3.8-3.8,10.1-3.8,13.9,0c3.8,3.8,3.8,10.1,0,13.9c0,0,0,0,0,0
			C-375.9,144.4-382.1,144.4-385.9,140.6L-385.9,140.6z"/>
		<path class="st3" d="M-402.5,151.4l2.7-2.7l-2-2c0.9-1.3,1.5-2.7,1.8-4.2h2.8v-3.8h-2.7c-0.3-1.5-0.9-3-1.8-4.2l2-2l-2.7-2.7l-2,2
			c-1.3-0.9-2.7-1.5-4.2-1.7v-2.8h-3.8v2.8c-1.5,0.3-3,0.9-4.2,1.7l-2-2l-2.7,2.7l2,2c-0.9,1.3-1.5,2.7-1.7,4.2h-2.8v3.8h2.7
			c0.3,1.5,0.9,3,1.7,4.2l-2,2l2.7,2.7l2-2c1.3,0.9,2.7,1.5,4.2,1.8v2.8h3.8v-2.7c1.5-0.3,3-0.9,4.2-1.8L-402.5,151.4z
			 M-414.3,144.5c-2.1-2.1-2.1-5.5,0-7.6c2.1-2.1,5.5-2.1,7.6,0c2.1,2.1,2.1,5.5,0,7.6c0,0,0,0,0,0
			C-408.9,146.6-412.2,146.6-414.3,144.5z"/>
		<path class="st4" d="M-362.7,181.1l3.2-3.2l-2.3-2.3c1.1-1.5,1.8-3.2,2.1-5h3.3v-4.5h-3.3c-0.3-1.8-1-3.5-2.1-5l2.3-2.3l-3.2-3.2
			l-2.3,2.3c-1.5-1.1-3.2-1.8-5-2.1v-3.3h-4.5v3.4c-1.8,0.3-3.5,1.1-5,2.1l-2.3-2.4l-3.2,3.2l2.3,2.4c-1.1,1.5-1.8,3.2-2.1,5h-3.3
			v4.5h3.3c0.3,1.8,1,3.5,2.1,5l-2.4,2.3l3.2,3.2l2.3-2.3c1.5,1.1,3.2,1.8,5,2.1v3.3h4.5v-3.3c1.8-0.3,3.5-1.1,5-2.1L-362.7,181.1z
			 M-377.2,173.1c0-2.7,2.2-4.8,4.8-4.8c2.7,0,4.8,2.2,4.8,4.8s-2.2,4.8-4.8,4.8C-375,178-377.2,175.8-377.2,173.1L-377.2,173.1z"/>
		<path class="st11" d="M-428.5,146c-0.1-0.5-0.1-1-0.1-1.6"/>
		<path class="st11" d="M-414.8,158.3c-6.4,0-12-4.4-13.5-10.7"/>
		<path class="st5" d="M-393.6,172.7c-0.1-0.7-0.1-1.4-0.1-2.1"/>
		<path class="st5" d="M-375.3,189c-8.6,0-16-5.9-18-14.3"/>
		<path class="st8" d="M-190.7,293.2h-49.8v-53"/>
		<path class="st12" d="M-233.8,284.9l11.2-16.2l5.9,8.1l7.6-11.6l10.3,3.5l8-14"/>
		<path class="st6" d="M-184.2,261.5l0-18l-15.6,9L-184.2,261.5z"/>
		<line class="st5" x1="-245.6" y1="251.5" x2="-245.6" y2="296.4"/>
		<line class="st5" x1="-245.6" y1="250" x2="-245.6" y2="247.7"/>
		<line class="st5" x1="-245.6" y1="246.2" x2="-245.6" y2="244.8"/>
		<circle class="st4" cx="-56.2" cy="151.4" r="23"/>
		<path class="st3" d="M-54.9,149.3v-5.3c0.9,0.4,1.5,1.2,1.6,2.1l3.4-0.4c-0.2-1.2-0.7-2.4-1.6-3.2c-0.9-0.8-2.1-1.4-3.4-1.5v-1.3
			h-1.9v1.3c-1.4,0.1-2.7,0.7-3.7,1.7c-0.9,1-1.4,2.3-1.4,3.7c0,1.3,0.4,2.7,1.2,3.7c1,1.1,2.4,1.9,3.9,2.3v5.6
			c-0.5-0.3-1-0.7-1.3-1.1c-0.4-0.5-0.7-1.2-0.8-1.9l-3.5,0.4c0.2,1.5,0.8,3,1.9,4.1c1,1,2.4,1.6,3.8,1.7v2.5h1.9v-2.5
			c1.6-0.2,3-0.9,4.1-2c1-1.1,1.5-2.6,1.5-4.1c0.1-1.3-0.4-2.6-1.2-3.6C-51.7,150.4-53.2,149.6-54.9,149.3z M-56.8,148.7
			c-0.5-0.2-1-0.5-1.3-1c-0.3-0.4-0.4-0.9-0.4-1.3c0-0.5,0.2-1,0.5-1.4c0.3-0.4,0.8-0.8,1.3-0.9V148.7z M-53.2,157.4
			c-0.4,0.5-1,0.8-1.6,0.9v-5.3c0.7,0.1,1.3,0.5,1.7,1c0.4,0.4,0.6,1,0.5,1.6C-52.6,156.3-52.8,156.9-53.2,157.4L-53.2,157.4z"/>
		<path class="st4" d="M-35,114.9c-7.7,0-14.9,3.9-19.2,10.3h0.2c13.7,0,24.8,11.1,24.8,24.8c0,3.6-0.8,7.2-2.4,10.5
			c12.5-1.9,21.1-13.6,19.2-26.2C-14.1,123.1-23.7,114.8-35,114.9L-35,114.9z"/>
		<path class="st3" d="M-37.6,131.5c0.1-0.2,0.2-0.4,0.3-0.6c0.3-0.4,0.8-0.7,1.3-0.9v3.1c3.1,3.3,5.3,7.5,6.2,11.9
			c0.9-1.1,1.3-2.5,1.3-3.9c0.1-1.3-0.4-2.6-1.2-3.6c-1.2-1.2-2.7-2-4.4-2.3V130c0.9,0.4,1.5,1.2,1.6,2.1l3.4-0.5
			c-0.2-1.2-0.7-2.3-1.6-3.2c-0.9-0.8-2.1-1.4-3.4-1.5v-1.3h-2v1.3c-1.4,0.1-2.7,0.7-3.7,1.7c-0.2,0.2-0.4,0.4-0.5,0.7
			C-39.3,130-38.4,130.7-37.6,131.5L-37.6,131.5z"/>
		<path class="st5" d="M-83.8,157.5c-0.1-1-0.2-1.9-0.2-2.9"/>
		<path class="st5" d="M-58.3,180.2c-11.9,0-22.3-8.2-25-19.8"/>
		<path class="st4" d="M-95.1,210.1c-0.5-0.5-1.2-0.5-1.7,0l-7,7c-0.4,0.4-0.5,1-0.1,1.5l-6.8,1.3l-0.9,0.2l-0.9-0.2l-6.8-1.3
			c0.3-0.5,0.3-1.1-0.1-1.5l-7-7c-0.5-0.5-1.2-0.5-1.7,0l-19.8,19.9c-0.5,0.4-0.5,1.2,0,1.6c0,0,0,0,0,0l7,7c0.5,0.5,1.2,0.5,1.7,0
			c0,0,0,0,0,0l0.3-0.3l0.7,1.2c1.3,2.5,2.9,4.9,4.8,7.1c-1,1.8-0.7,4,0.6,5.5c0.7,0.7,1.6,1.2,2.5,1.3c-0.7,1-1.1,2.2-1.1,3.4
			c0,1.2,0.5,2.4,1.4,3.2c1.3,1.1,3.1,1.4,4.7,0.9v0.1c0,1.2,0.5,2.4,1.4,3.2c0.8,0.8,1.9,1.2,3,1.1c1.6,0,3.1-0.7,4.2-1.8l1,1
			c1.1,1.2,2.7,1.8,4.3,1.8c2.1,0.1,4-1.4,4.3-3.5l0.7,0.7c2.1,2.1,5.5,2.5,7.3,0.7c0.9-0.8,1.4-2,1.4-3.2v-0.1
			c1.6,0.6,3.4,0.2,4.7-0.9c0.9-0.8,1.4-2,1.4-3.2c0-1.2-0.4-2.4-1.1-3.4c1-0.2,1.8-0.6,2.5-1.3c1.3-1.6,1.5-3.7,0.5-5.5
			c1.9-2.2,3.5-4.5,4.8-7.1l0.7-1.2l0.3,0.3c0.5,0.5,1.2,0.5,1.7,0c0,0,0,0,0,0l7-7c0.5-0.4,0.5-1.2,0-1.6c0,0,0,0,0,0L-95.1,210.1z
			"/>
		<path class="st3" d="M-92,250.5c-0.4,0.4-1,0.7-1.5,0.6c-0.9,0-1.8-0.4-2.5-1.1l-11.3-11.3c-0.5-0.5-1.2-0.5-1.7,0c0,0,0,0,0,0
			c-0.5,0.5-0.5,1.2,0,1.7l11.3,11.3l0,0l2.5,2.5c0.7,0.7,1,1.6,1.1,2.5c0,0.6-0.2,1.1-0.6,1.5c-1,0.9-2.8,0.6-4.1-0.7l-0.8-0.8
			l-12.9-12.9c-0.5-0.5-1.2-0.5-1.7,0c0,0,0,0,0,0c-0.5,0.5-0.5,1.2,0,1.7l12.9,12.9c0.7,0.6,1.1,1.5,1.1,2.5c0,0.6-0.2,1.1-0.6,1.5
			c-1,0.9-2.8,0.6-4.1-0.7l-4-4l-8.8-8.7c-0.5-0.5-1.2-0.5-1.7,0c-0.5,0.5-0.5,1.2,0,1.7l8.8,8.8c0.7,0.7,1,1.5,1.1,2.5
			c0,0.6-0.2,1.1-0.6,1.5c-1,0.9-2.8,0.6-4.1-0.7l-6.9-7l0,0l-8.6-8.6c-2.6-2.6-4.8-5.6-6.5-8.9l-1-1.9l15.9-15.9l8.5,1.5
			c3.3,0.7,6.3,2.3,8.7,4.7l5.1,5.1c1.2,1.2,1.5,3,0.7,3.9c-0.2,0.3-0.5,0.5-0.9,0.6l-7.5-7.5c-0.5-0.5-1.2-0.5-1.7,0
			s-0.5,1.2,0,1.7l0,0l7.9,7.9l7.9,7.9C-91.4,247.7-91.1,249.6-92,250.5z"/>
		<path class="st3" d="M-86,236.5l-1,1.9c-1.2,2.2-2.6,4.3-4.2,6.2l-6.4-6.5c0.4-0.2,0.7-0.5,0.9-0.9c1.6-1.9,1.2-5-0.9-7.1
			l-5.1-5.1c-1.4-1.4-3-2.6-4.8-3.5l5.5-1L-86,236.5z"/>
		<path class="st3" d="M-131.7,248.6l0.3,0.4l2.2,2.2c-1.1,0.3-2.2-0.4-2.5-1.5C-131.8,249.3-131.8,248.9-131.7,248.6L-131.7,248.6z
			"/>
		<path class="st3" d="M-124.5,257.6c-1.2,1.2-3.1,1.6-4.1,0.7c-0.4-0.4-0.7-1-0.6-1.5c0-0.9,0.4-1.8,1.1-2.5l1.1-1.1l3.5,3.5
			l-0.1,0.1L-124.5,257.6z"/>
		<path class="st3" d="M-122.5,262.5c-0.4-0.4-0.7-1-0.6-1.5c0-0.9,0.4-1.8,1.1-2.5l0.1-0.1l3.5,3.5
			C-119.7,263.1-121.5,263.4-122.5,262.5z"/>
		<line class="st0" x1="-190.3" y1="105.2" x2="-187.3" y2="106.2"/>
		<line class="st13" x1="-181.2" y1="108.2" x2="-73.4" y2="143.2"/>
		<line class="st0" x1="-70.3" y1="144.2" x2="-67.3" y2="145.2"/>
		<line class="st0" x1="-249.8" y1="105.5" x2="-252.8" y2="106.5"/>
		<line class="st14" x1="-258.9" y1="108.4" x2="-365.9" y2="143.2"/>
		<line class="st0" x1="-369" y1="144.2" x2="-372" y2="145.2"/>
		<line class="st0" x1="-237.9" y1="120.8" x2="-239.8" y2="123.4"/>
		<line class="st15" x1="-243.6" y1="128.6" x2="-310" y2="220.1"/>
		<line class="st0" x1="-311.9" y1="222.7" x2="-313.8" y2="225.3"/>
		<line class="st0" x1="-220.1" y1="126.8" x2="-220.1" y2="129.9"/>
		<line class="st15" x1="-220" y1="136.4" x2="-219.7" y2="249.5"/>
		<line class="st0" x1="-219.7" y1="252.7" x2="-219.7" y2="255.9"/>
		<line class="st0" x1="-201.5" y1="120.7" x2="-199.6" y2="123.2"/>
		<line class="st16" x1="-196" y1="128.2" x2="-140.2" y2="205"/>
		<line class="st0" x1="-138.4" y1="207.5" x2="-136.6" y2="210"/>
		<ellipse class="st3" cx="-200.4" cy="-105.6" rx="8.8" ry="11.9"/>
		<ellipse class="st3" cx="-221.9" cy="-114.8" rx="8.8" ry="11.9"/>
		<path class="st5" d="M-269-83.3c0,0.2,0,0.4-0.1,0.6c0,0.4-0.1,0.8-0.1,1.2v14.1c7.2,3.4,15,5.2,23,5.2c2.5,0,5.1-0.2,7.6-0.5"/>
		<path class="st5" d="M-267-87.5c-0.5,0.6-1,1.2-1.3,1.9"/>
		<path class="st5" d="M-221.4-66.7c7.2,3.4,15,5.2,23,5.2c2.5,0,5.1-0.2,7.6-0.5"/>
		<path class="st4" d="M-193-92.6c-2.3,2.7-3.7,8.9-7.4,8.9s-4.9-4.6-7.2-7.4c-2.6,0.7-1.8,1.3-8.1,2.8c-2.4,0.5-3.2,3.7-3.2,6.9
			l-0.8,9.4c12.2,5.8,26.4,5.7,38.5-0.3v-9.9c0-3.5-0.7-5.8-3.7-6.6C-191.5-90.7-190.6-91.9-193-92.6z"/>
		<path class="st3" d="M-201.4-87.5l7.4-6.2l0.9,1.6l-8.3,18.3l-6.3-17.3l1-1.5L-201.4-87.5z"/>
		<path class="st4" d="M-201.5-80.5l-2.5-2.7c-0.3-0.4-0.3-1,0-1.4l2.4-2.7c0.1-0.2,0.4-0.2,0.5-0.1c0,0,0.1,0.1,0.1,0.1l2.5,2.7
			c0.3,0.4,0.3,1,0,1.4l-2.4,2.7c-0.1,0.2-0.4,0.2-0.5,0.1C-201.4-80.4-201.5-80.5-201.5-80.5L-201.5-80.5z"/>
		<path class="st4" d="M-202.2-83.8l-3.2,11.1h8.5l-3.2-11.1c0-0.6-0.5-1.1-1.1-1.1C-201.8-84.9-202.2-84.4-202.2-83.8z"/>
		<ellipse class="st3" cx="-244.6" cy="-105.6" rx="8.8" ry="11.9"/>
		<path class="st4" d="M-237.2-92.6c-2.3,2.7-3.7,8.9-7.4,8.9s-4.9-4.6-7.2-7.4c-2.6,0.7-1.8,1.3-8.1,2.8c-2.4,0.5-3.2,3.7-3.2,6.9
			l-0.8,9.4c12.2,5.8,26.4,5.7,38.5-0.3v-9.9c0-3.5-0.7-5.8-3.7-6.6C-235.8-90.7-234.9-91.9-237.2-92.6z"/>
		<path class="st3" d="M-245.6-87.5l7.4-6.2l0.9,1.6l-8.3,18.3l-6.3-17.3l1-1.5L-245.6-87.5z"/>
		<path class="st4" d="M-245.8-80.5l-2.5-2.7c-0.3-0.4-0.3-1,0-1.4l2.5-2.7c0.1-0.2,0.4-0.2,0.5-0.1c0,0,0.1,0.1,0.1,0.1l2.5,2.7
			c0.3,0.4,0.3,1,0,1.4l-2.4,2.7c-0.1,0.2-0.3,0.3-0.5,0.2C-245.7-80.4-245.7-80.4-245.8-80.5L-245.8-80.5z"/>
		<path class="st4" d="M-246.5-83.8l-3.2,11.1h8.4l-3.2-11.1c0-0.6-0.5-1.1-1.1-1.1S-246.5-84.4-246.5-83.8L-246.5-83.8z"/>
	</g>
</g>
</svg>
